<mxfile host="65bd71144e">
    <diagram id="CWMukBL_cRmZJIWaCqDw" name="Page-1">
        <mxGraphModel dx="5102" dy="3697" grid="1" gridSize="10" guides="1" tooltips="1" connect="1" arrows="1" fold="1" page="1" pageScale="1" pageWidth="2339" pageHeight="3300" math="0" shadow="0">
            <root>
                <mxCell id="0"/>
                <mxCell id="1" parent="0"/>
                <mxCell id="10" value="Branch" style="swimlane;fontStyle=1;align=center;verticalAlign=top;childLayout=stackLayout;horizontal=1;startSize=26;horizontalStack=0;resizeParent=1;resizeParentMax=0;resizeLast=0;collapsible=1;marginBottom=0;whiteSpace=wrap;html=1;" vertex="1" parent="1">
                    <mxGeometry x="-2540" y="-580" width="160" height="140" as="geometry">
                        <mxRectangle x="-2540" y="-580" width="80" height="30" as="alternateBounds"/>
                    </mxGeometry>
                </mxCell>
                <mxCell id="11" value="+ id: int&lt;div&gt;+ name: string&lt;/div&gt;&lt;div&gt;+ address: string&lt;/div&gt;&lt;div&gt;+ contact_number: string&lt;/div&gt;&lt;div&gt;+ status: string&lt;/div&gt;&lt;div&gt;+ created_at: datetime&lt;/div&gt;&lt;div&gt;+ updated_at: datetime&lt;/div&gt;" style="text;strokeColor=none;fillColor=none;align=left;verticalAlign=top;spacingLeft=4;spacingRight=4;overflow=hidden;rotatable=0;points=[[0,0.5],[1,0.5]];portConstraint=eastwest;whiteSpace=wrap;html=1;" vertex="1" parent="10">
                    <mxGeometry y="26" width="160" height="114" as="geometry"/>
                </mxCell>
                <mxCell id="19" value="User" style="swimlane;fontStyle=1;align=center;verticalAlign=top;childLayout=stackLayout;horizontal=1;startSize=26;horizontalStack=0;resizeParent=1;resizeParentMax=0;resizeLast=0;collapsible=1;marginBottom=0;whiteSpace=wrap;html=1;" vertex="1" parent="1">
                    <mxGeometry x="-2540" y="-360" width="160" height="160" as="geometry">
                        <mxRectangle x="-2540" y="-360" width="70" height="30" as="alternateBounds"/>
                    </mxGeometry>
                </mxCell>
                <mxCell id="20" value="+ id: int&lt;div&gt;+ name: string&lt;/div&gt;&lt;div&gt;+ email: string&lt;/div&gt;&lt;div&gt;+ password: string&lt;/div&gt;&lt;div&gt;+ role: string&lt;/div&gt;&lt;div&gt;+ branch_id: int&lt;/div&gt;&lt;div&gt;+ created_at: datetime&lt;/div&gt;&lt;div&gt;+ updated_at: datetime&lt;/div&gt;" style="text;strokeColor=none;fillColor=none;align=left;verticalAlign=top;spacingLeft=4;spacingRight=4;overflow=hidden;rotatable=0;points=[[0,0.5],[1,0.5]];portConstraint=eastwest;whiteSpace=wrap;html=1;" vertex="1" parent="19">
                    <mxGeometry y="26" width="160" height="134" as="geometry"/>
                </mxCell>
                <mxCell id="26" value="Product" style="swimlane;fontStyle=1;align=center;verticalAlign=top;childLayout=stackLayout;horizontal=1;startSize=26;horizontalStack=0;resizeParent=1;resizeParentMax=0;resizeLast=0;collapsible=1;marginBottom=0;whiteSpace=wrap;html=1;" vertex="1" parent="1">
                    <mxGeometry x="-2300" y="-580" width="160" height="200" as="geometry">
                        <mxRectangle x="-2300" y="-580" width="80" height="30" as="alternateBounds"/>
                    </mxGeometry>
                </mxCell>
                <mxCell id="27" value="+ id: int&lt;div&gt;+ name: string&lt;/div&gt;&lt;div&gt;+ description: string&lt;/div&gt;&lt;div&gt;+ price: double&lt;/div&gt;&lt;div&gt;+ stock_quantity: int&lt;/div&gt;&lt;div&gt;+ supplier_id: int&lt;/div&gt;&lt;div&gt;+ branch_id: int&lt;/div&gt;&lt;div&gt;+ category_id: int&lt;/div&gt;&lt;div&gt;+ low_stock_notified: bool&lt;/div&gt;&lt;div&gt;+ created_at: datetime&lt;/div&gt;&lt;div&gt;+ updated_at: datetime&lt;/div&gt;" style="text;strokeColor=none;fillColor=none;align=left;verticalAlign=top;spacingLeft=4;spacingRight=4;overflow=hidden;rotatable=0;points=[[0,0.5],[1,0.5]];portConstraint=eastwest;whiteSpace=wrap;html=1;" vertex="1" parent="26">
                    <mxGeometry y="26" width="160" height="174" as="geometry"/>
                </mxCell>
                <mxCell id="29" value="Supplier" style="swimlane;fontStyle=1;align=center;verticalAlign=top;childLayout=stackLayout;horizontal=1;startSize=26;horizontalStack=0;resizeParent=1;resizeParentMax=0;resizeLast=0;collapsible=1;marginBottom=0;whiteSpace=wrap;html=1;" vertex="1" parent="1">
                    <mxGeometry x="-2540" y="-860" width="210" height="220" as="geometry">
                        <mxRectangle x="-2540" y="-860" width="80" height="30" as="alternateBounds"/>
                    </mxGeometry>
                </mxCell>
                <mxCell id="30" value="+ id: int&lt;div&gt;+ name: string&lt;/div&gt;&lt;div&gt;+ email: string&lt;/div&gt;&lt;div&gt;+ phone: string&lt;/div&gt;&lt;div&gt;+ address: string&lt;/div&gt;&lt;div&gt;+ contract_start_date: datetime&lt;/div&gt;&lt;div&gt;+ contract_end_date: datetime&lt;/div&gt;&lt;div&gt;+ status: string&lt;/div&gt;&lt;div&gt;+ payment_terms: string&lt;/div&gt;&lt;div&gt;+ branch_id: int&lt;/div&gt;&lt;div&gt;+ created_at: datetime&lt;/div&gt;&lt;div&gt;+ updated_at: datetime&lt;/div&gt;" style="text;strokeColor=none;fillColor=none;align=left;verticalAlign=top;spacingLeft=4;spacingRight=4;overflow=hidden;rotatable=0;points=[[0,0.5],[1,0.5]];portConstraint=eastwest;whiteSpace=wrap;html=1;" vertex="1" parent="29">
                    <mxGeometry y="26" width="210" height="194" as="geometry"/>
                </mxCell>
                <mxCell id="38" value="1" style="endArrow=open;html=1;endSize=12;startArrow=diamondThin;startSize=14;startFill=0;edgeStyle=orthogonalEdgeStyle;align=left;verticalAlign=bottom;exitX=0.551;exitY=-0.003;exitDx=0;exitDy=0;exitPerimeter=0;entryX=0.562;entryY=1.001;entryDx=0;entryDy=0;entryPerimeter=0;" edge="1" parent="1" source="10" target="30">
                    <mxGeometry x="-0.7852" y="-17" relative="1" as="geometry">
                        <mxPoint x="-2450" y="-610" as="sourcePoint"/>
                        <mxPoint x="-2420" y="-630" as="targetPoint"/>
                        <mxPoint as="offset"/>
                    </mxGeometry>
                </mxCell>
                <mxCell id="39" value="1" style="endArrow=open;html=1;endSize=12;startArrow=diamondThin;startSize=14;startFill=0;edgeStyle=orthogonalEdgeStyle;align=left;verticalAlign=bottom;entryX=-0.004;entryY=0.253;entryDx=0;entryDy=0;entryPerimeter=0;exitX=1;exitY=0.386;exitDx=0;exitDy=0;exitPerimeter=0;" edge="1" parent="1" source="11" target="27">
                    <mxGeometry x="-1" y="3" relative="1" as="geometry">
                        <mxPoint x="-2380" y="-520" as="sourcePoint"/>
                        <mxPoint x="-2300" y="-520" as="targetPoint"/>
                    </mxGeometry>
                </mxCell>
                <mxCell id="40" value="1" style="endArrow=open;html=1;endSize=12;startArrow=diamondThin;startSize=14;startFill=0;edgeStyle=orthogonalEdgeStyle;align=left;verticalAlign=bottom;exitX=0.442;exitY=1.009;exitDx=0;exitDy=0;exitPerimeter=0;entryX=0.5;entryY=0;entryDx=0;entryDy=0;" edge="1" parent="1" source="11" target="19">
                    <mxGeometry x="-0.5706" y="9" relative="1" as="geometry">
                        <mxPoint x="-2500" y="-400" as="sourcePoint"/>
                        <mxPoint x="-2469" y="-350" as="targetPoint"/>
                        <mxPoint as="offset"/>
                    </mxGeometry>
                </mxCell>
            </root>
        </mxGraphModel>
    </diagram>
</mxfile>
